<svg xmlns="http://www.w3.org/2000/svg" viewBox="0 0 75.57 129.76" ><defs><style>.cls-1{fill:#8b604f;}</style></defs><g id="레이어_2" data-name="레이어 2"><g id="OBJECTS"><path class="cls-1" d="M29.71,5.42l-.06.06Z"/><path class="cls-1" d="M75,57.89c-.79,1.85-4.91,1.58-6.54,1.5-2.07-.09-4-.43-5.57-1.88a15,15,0,0,1,11.74.37c.38.17.71-.39.33-.56A15.62,15.62,0,0,0,63,56.77c1.9-2.08,3.65-4.36,5.48-6.59a.22.22,0,0,0,.14,0,10.23,10.23,0,0,0,3.82-.11c.74-.18,2.48-.6,2.94-1.3s0-1-.48-1.39a9.35,9.35,0,0,1-1.37-1.9,1.67,1.67,0,0,0-.77-.74,4.51,4.51,0,0,0-.65-.22,4.69,4.69,0,0,1-1.63-.92,3,3,0,0,0-1.13-.76c-.73-.14-1.1.43-1.41,1-.77,1.51-1,4.32,0,5.84-3.7,4.5-7.05,9.25-12.23,12a251.16,251.16,0,0,0,8.33-25,25.32,25.32,0,0,0,6.08-1.65c.78-.37,1.63-1,1.59-1.95-.06-1.44-1.89-1.49-2.6-2.41-.86-1.1-1.35-1.89-2.87-2a5.63,5.63,0,0,1-3-1.3c-.42-.29-1-.81-1.6-.78-.81,0-.84.49-1,1.29-.52,3-.1,6.94,2.73,8.68-1.29,4.38-2.59,8.76-4,13.11a12.93,12.93,0,0,0-3.12-8.12c-.2-.25-.54,0-.56.23-.39,4.05-.59,8.27,2.3,11.49a.24.24,0,0,0,.14.09c-1,2.95-2.11,5.87-3.31,8.74a.25.25,0,0,0-.14.32C53.62,65.29,52.37,68,51,70.63c-.51,1-1.07,1.92-1.65,2.86C47.44,68,48.47,62,47.47,56.35a.32.32,0,0,0,.21,0c1.19-.74,3.47-2.63,3.19-4.27a.75.75,0,0,0-.76-.7c-.33,0-.68.12-1,.09s-.49-.17-.74-.21a2.36,2.36,0,0,0-1.12.06,9.42,9.42,0,0,1-1.61.5c-.49.06-1.1-.15-1.58,0a1.57,1.57,0,0,0-1,1.41c-.43,2.29,2,2.51,3.73,3.1h.07a55.64,55.64,0,0,1,.63,8.46,6.45,6.45,0,0,0-1.86-2.17c-1.91-1.6-3.88-3.14-5.82-4.71a.32.32,0,0,0-.54.31c.59,4.23,3.75,9.57,8.39,9.91a22.73,22.73,0,0,0,1.24,6,.26.26,0,0,0,.07.11c-2.36,3.74-5,7.34-6.75,11.37C40.23,90.07,39.74,95,39.72,99.9A96,96,0,0,1,36,74.65h.06c2.75-.72,5.77-2.32,5.75-5.56a.33.33,0,0,0-.49-.28C39.58,69.74,37.05,70.3,36,72c0-3.92.13-7.84.3-11.76a.36.36,0,0,0,0-.51c.09-1.84.18-3.69.28-5.53,3.35-1.32,4.53-4.32,5.81-7.44a.27.27,0,0,0,.06-.12l0-.11c.15-.38-.43-.54-.61-.2-2.09,1.08-4.14,2.5-5.13,4.56q.16-3,.31-6c0-.32,0-.63,0-.94a40.84,40.84,0,0,0,11-8.2l0,0a9.48,9.48,0,0,0,4.48,1.35c.79,0,2.38.05,2.93-.67s0-1-.32-1.56a4.67,4.67,0,0,1-.92-1.8c0-.12,0-.24,0-.36s.08-.19,0-.25a4.57,4.57,0,0,0-.07-.83,1.5,1.5,0,0,0-.52-1c-.45-.41-.91-.65-1.3-1.06.07-.1.14-.19.2-.29a.15.15,0,0,0-.26-.16c0,.07-.09.13-.13.19a1.37,1.37,0,0,1-.2-.26c-.21-.37-.24-.74-.65-1a1.82,1.82,0,0,0-2.16.49A5.89,5.89,0,0,0,47.84,35a40.16,40.16,0,0,1-10.71,8.15q.19-4.43.41-8.86A11.55,11.55,0,0,0,46,24.41c0-.26-.29-.37-.49-.28-2.3,1.1-6.14,3.3-7.77,6l.69-14.89c2.8-1.9,6.13-2.38,9.22-3.68,1.43-.61,3.72-1.5,3.62-3.36a25.46,25.46,0,0,0-.81-2.54,3.81,3.81,0,0,0-1.13-2.35C47.71,1.78,44.85,1,42.53.48c0-.13-.16-.15-.24-.06L41.42.21a3.72,3.72,0,0,0-2.63.06c-1.73.62-3.39.83-5.16,1.28A5.75,5.75,0,0,0,31,3c-.5.47-.88,1-1.35,1.53-.63.65-1.53,1-2.13,1.65-1,1.05-1.26,2.23,0,3.29.91.74,2.24.8,3.32,1.09,2.17.58,5.86,1.76,6.75,4.08a.29.29,0,0,0,.18.19v.09l-.06,0a.35.35,0,0,0,0,.58Q37.38,24,37,32.41c0,.11,0,.22,0,.33,0,.4,0,.79-.05,1.18a8.83,8.83,0,0,1-3.58-4.24s0,0,0,0,0,0,0,0c.12-2,1.58-3.37,2.37-5.13.37-.82.81-2.11.08-2.89-.58-.62-1.34-.45-2.08-.3-1.24.26-2.95,0-4,.77-.47.35-.7,1-1.19,1.38a11,11,0,0,1-1.74.8c-.78.38-1.77,1-1.65,2.06.07.67.58,1,1.13,1.29a52.68,52.68,0,0,0,6.39,2.27.22.22,0,0,0,.11,0,9.4,9.4,0,0,0,4.05,4.74l.11,0-.51,10.72c0,1.16-.11,2.32-.17,3.48-1.48-4.39-2.43-9.1-6.17-12.16a.31.31,0,0,0-.27-.22c-.3-.21-.58.23-.37.5-.11,3.06-.43,6.37,1,9.19A9.8,9.8,0,0,0,36,50.9h.05c-.15,2.78-.3,5.56-.43,8.34-2.47-1.84-5.08-3.63-7.47-5.64l0,0a8.94,8.94,0,0,0,.5-4.75c-.07-.54,0-2.54-1.06-2.4-.78.1-1.41,1.75-1.61,2.37a4.79,4.79,0,0,0-.15,2.72c-.56-.57-1.11-1.15-1.62-1.77s-.83-1.07-1.22-1.62a.3.3,0,0,0-.13-.24l-.05,0a59,59,0,0,1-5.31-10.45c.64-2.08,4.34-5.4,2.77-7.61a1.63,1.63,0,0,0-1.71-.61c-.21,0-.4.16-.59.2l-.31,0a.12.12,0,0,0-.14,0c-.69.08-1.39.1-2.1.19a1.89,1.89,0,0,0-.79.14A16.85,16.85,0,0,0,12.62,31a26,26,0,0,1-3.73,1.59c-.53.22-1.11.42-1.05,1.12s1.46,1.29,2,1.54A59.63,59.63,0,0,0,17,37.74l.05,0a67.67,67.67,0,0,0,4.45,9.09,24.34,24.34,0,0,0-11.63-3.8.33.33,0,0,0-.28.49c2.32,3.29,9,8.24,13,5,.39.56.8,1.1,1.23,1.63C27.05,54.1,31.59,57,35.62,60c-.11,2.49-.2,5-.25,7.48-1.68-5.72-6.7-9.23-12.39-10.6a.33.33,0,0,0-.36.48C25,62.87,28.45,69.32,35.34,69.14c0,2.34,0,4.69,0,7a98.42,98.42,0,0,0,5.73,29.63q-2.66-2.6-5.4-5.08a.33.33,0,0,0-.3-.38l-.14,0-.15-.14a.24.24,0,0,0,.18-.16c2-4.63-.88-8.86-2.28-13.22a.33.33,0,0,0-.63,0c-1.1,3.29-2.15,7.27-.63,10.38l-3.1-2.74a.28.28,0,0,0,0-.18,18.18,18.18,0,0,1-1-8.67l.05-.06A5.28,5.28,0,0,0,31,84.45c.7-.5,2-1.39,2.23-2.29s-.22-.75-.75-1c-1-.56-1.51-1.75-2.65-2.11-.69-.21-1.44-.15-2.15-.33s-1.47-.57-2.23-.76-1.31-.37-1.68.32c-1.12,2.09,2,5.52,3.19,7.16a18.83,18.83,0,0,0,.76,8.27l-3.88-3.42a46.15,46.15,0,0,1-7.54-7.83.36.36,0,0,0-.22-.34.57.57,0,0,1-.08-.13.27.27,0,0,0-.12-.17c-.14-.21-.28-.42-.41-.63s-.29-.51-.43-.76a.33.33,0,0,0,.38-.06c.08-.1.15-.21.23-.32l.08,0a3.23,3.23,0,0,0,.76-1.21,10.52,10.52,0,0,0,1.07-7.9A.34.34,0,0,0,17,70.7a9,9,0,0,0-3.26,7.1,57,57,0,0,1-2.71-8,.11.11,0,0,0,0-.06,30.59,30.59,0,0,0,3.15-5.89c.34-.84,1.35-2.49.56-3.37-.5-.56-3.08-.65-3.71-.57a4.4,4.4,0,0,0-1.75.67,9.29,9.29,0,0,1-3.92,1.16c-2.23.2-5.34.08-3.61,2.81a12.31,12.31,0,0,0,8.57,5.51.28.28,0,0,0,.13,0,46.68,46.68,0,0,0,4,10.62c.08.15.18.29.27.44a67,67,0,0,0-6.44-3c-2.54-1-5.22-2.19-8-1.83a.33.33,0,0,0-.23.56C4,80.67,10.19,86,15.85,82.84A41,41,0,0,0,22,89.46c2.69,2.42,5.42,4.8,8.15,7.19a34.29,34.29,0,0,1-9.32-.47h-.05a.37.37,0,0,0-.26-.12,10.13,10.13,0,0,0-7.22-4c-.62,0-.93.07-1.15.66s-.17,1-.31,1.54c-.11.26-.39,1-.41,1.12a1.63,1.63,0,0,0,0,1.21c.08.26.27.48.37.73A5.55,5.55,0,0,1,12,99.54a2.63,2.63,0,0,0,.07,1.15c.36.73,1.14.78,1.85.7A9.64,9.64,0,0,0,20.52,97a.12.12,0,0,0,.08-.13.22.22,0,0,0,0-.08h0a34.61,34.61,0,0,0,10,.43.25.25,0,0,0,.15-.06c1.14,1,2.28,2,3.41,3a17,17,0,0,0-7.28,1.15.33.33,0,0,0-.08.59,7.6,7.6,0,0,0,6.14.9,2.75,2.75,0,0,0,1.57-.61,6.8,6.8,0,0,0,1-.63.23.23,0,0,0,.1-.12c2,1.79,3.89,3.59,5.77,5.46a.37.37,0,0,0,.15.08c.94,2.67,2,5.32,3.07,8-3.69-3.06-7.26-6.35-12.25-6.64a.33.33,0,0,0-.28.49,20.08,20.08,0,0,0,5,5.65c2.37,1.61,5.43,2,8.24,2.11.7,1.64,1.43,3.27,2.17,4.9a20.63,20.63,0,0,0-8.59-1.77.34.34,0,0,0-.23.56c2.23,2.63,6.3,2.94,9.58,2.89q1.5,3.21,3.07,6.41c.18.37.74,0,.56-.33q-1.48-3-2.93-6.07a.27.27,0,0,0,.28,0c3.39-1.22,6.29-4.22,5.23-8.06a.34.34,0,0,0-.55-.14c-2.37,1.88-4.73,4-5.29,7l-.26-.13c-.85-1.81-1.67-3.62-2.47-5.45a.27.27,0,0,0,0-.45l-.32-.25-.66-1.56,0,0c2.82-2.43,5.66-4.88,8.25-7.56a14.49,14.49,0,0,0,10.51-3.78c.24-.21,0-.52-.23-.55a12.46,12.46,0,0,0-7.21.86c.58-.73,1.15-1.47,1.68-2.25s.94-1.41,1.37-2.14a.18.18,0,0,0,.07,0,.35.35,0,0,0,.29.46A9.1,9.1,0,0,0,66.88,97c.23-.2,0-.53-.23-.55-2.17-.2-4.46-.29-6.27.92a6.16,6.16,0,0,0,.48-1.51c.4-.83.79-1.68,1.15-2.54a9.93,9.93,0,0,0,6.44-1.81c.82-.57,3.18-2.31,2.49-3.54a.35.35,0,0,0-.29-.16A13.55,13.55,0,0,0,63,90.88c.83-2.24,1.55-4.54,2.21-6.83a.38.38,0,0,0,.15,0,14.43,14.43,0,0,0,4.57-1.9c.58-.38,1.61-.9,1.45-1.77S69.83,79.27,69.09,79a40.4,40.4,0,0,1-5.65-2.85.33.33,0,0,0-.48.19c-1,2.68.2,5.21,1.6,7.49-.79,2.71-1.65,5.42-2.68,8-.19.19-.39.38-.57.59a.34.34,0,0,0,.11.53c-.16.39-.32.77-.49,1.15C60.67,91,58.41,88,56.71,85.52a.33.33,0,0,0-.6.07c-1.56,4.49.27,8.29,2.88,11.94a.32.32,0,0,0,.18.13c-.56,1-1.14,2-1.8,2.93-3.46,5-8.15,9-12.75,13-.95-2.3-1.86-4.62-2.71-7h0a.3.3,0,0,0,.24-.3c0-.1,0-.21,0-.31,2.32-2.08,5.23-4.13,7.06-6.64s1.85-5.77,2.17-8.6a.33.33,0,0,0-.55-.23c-3.65,3.93-8.91,9.3-9.31,15-.28-.81-.56-1.62-.83-2.44-.15-.45-.28-.9-.42-1.36a.29.29,0,0,0,.1-.23c-.1-6.17.45-12.5,3.5-18,.8-1.46,1.66-2.87,2.54-4.28a.28.28,0,0,0,.27.14,10.43,10.43,0,0,0,6.19-2.6,2.57,2.57,0,0,0,1-1.25,4.57,4.57,0,0,0,.65-1.83c0-.22-.23-.37-.41-.32a15.84,15.84,0,0,0-5.86,2.93A81.42,81.42,0,0,0,52.53,69l.07,0c4.8.7,8.57-2,12-5h.47c.39,0,.41-.52.09-.63a.35.35,0,0,0-.57-.22l-.22.19a16.61,16.61,0,0,0-11,3.77q1-2.2,2-4.45a23.88,23.88,0,0,0,6.76-5,.34.34,0,0,0,.08.14C64,59.61,66.35,60,68.77,60.06c1.81,0,5.86.24,6.75-1.84C75.69,57.84,75.13,57.51,75,57.89ZM49.3,52.11c.51.17.9-.57.71.75-.17,1.15-1.76,2.33-2.65,2.88a.24.24,0,0,0-.16-.2,13.39,13.39,0,0,0,1.45-3.6A6.28,6.28,0,0,1,49.3,52.11Zm-.95-.2a13.43,13.43,0,0,1-1.28,3.23,11,11,0,0,1-.45-2.85s0,0,0,0l.34-.16A3,3,0,0,1,48.35,51.91Zm-2.58.65a2,2,0,0,0,.55-.18,11.73,11.73,0,0,0,.48,2.89l-.82-1c-.37-.45-1.18-1.16-1.16-1.8h0C45.08,52.44,45.48,52.6,45.77,52.56Zm-1.24,0a2.37,2.37,0,0,0,.67,1.25c.47.59.95,1.16,1.44,1.74A13.31,13.31,0,0,1,45,54.92C43.89,54.39,42.69,53,44.53,52.55ZM40,58.87l3.37,2.73C44.77,62.74,46.94,64,47.1,66a.33.33,0,0,0,.38.3c0,.39,0,.77.07,1.16C43.61,67.06,40.82,62.61,40,58.87ZM52.31,36.45a8.62,8.62,0,0,1-3.8-1.2h0a.11.11,0,0,0,.07-.09l.06-.19.14-.05a.16.16,0,0,0,.16.24,13.66,13.66,0,0,1,2.92.19,23.79,23.79,0,0,0,2.67,0,.14.14,0,0,0,.11,0C55.11,36.67,53.18,36.51,52.31,36.45Zm2.21-1.36A26.17,26.17,0,0,1,51.45,35a11.86,11.86,0,0,0-2.52-.16c1.6-.55,3.17-1.18,4.72-1.87a3.82,3.82,0,0,0,.21,1.18A7.05,7.05,0,0,0,54.52,35.09Zm-2.66-4.73c.73.78,1.35.34,1.69,1.8a4.5,4.5,0,0,1,.08.51c-1.6.71-3.22,1.36-4.88,1.93.59-1.77,2-2.89,3.08-4.29Zm-3.71,1.3c.14-.59.73-2.42,1.45-2.61l1.8.43c.05.14.11.29.17.43a1,1,0,0,1,.09.13c-.65.78-1.39,1.41-2,2.22a6.42,6.42,0,0,0-1.21,2.42A5.36,5.36,0,0,1,48.15,31.66ZM40.85,5.83a20.87,20.87,0,0,0,1.57-4.69A20.34,20.34,0,0,1,47,2.75c-1,2.46-3.14,4-5,5.91a24.68,24.68,0,0,0-3.48,4.95A29.73,29.73,0,0,1,40.85,5.83Zm2.33,6.57a19.93,19.93,0,0,0-4.67,2.06,37.72,37.72,0,0,1,5.81-4.19c1.85-1,3.85-1.65,5.67-2.7a.36.36,0,0,1,.11.21C50.09,11,45.61,11.64,43.18,12.4Zm6.57-5.22a.32.32,0,0,0,.06.15c-2.05,1.17-4.32,1.88-6.35,3.09a37.58,37.58,0,0,0-4.58,3.35,28.4,28.4,0,0,1,4.95-6.38A13.52,13.52,0,0,0,47.3,2.88C49.09,3.77,49.55,5.21,49.75,7.18ZM42.14,1.09c-.44,2.49-1.71,4.68-2.56,7.05a24.73,24.73,0,0,0-.89,3.13,7.66,7.66,0,0,0-.45-2.54,36.83,36.83,0,0,1-2.12-7c.8-.14,1.6-.28,2.31-.48A8.45,8.45,0,0,1,42.14,1.09Zm-6.32.66a23.82,23.82,0,0,0,1.43,5.42,11.16,11.16,0,0,1,1,5.25,6,6,0,0,0-1.73-2.59c-2.06-2-4-3.44-5.38-6.05.1-.11.2-.22.31-.32A8.41,8.41,0,0,1,35.82,1.75Zm-.61,9.82a21.28,21.28,0,0,0-2.63-1.17c-.87-.3-2.61-.33-3.27-.88a3.89,3.89,0,0,1-.51-3.35,10.09,10.09,0,0,0,.91-.75c.44-.44.82-.94,1.22-1.4a14.74,14.74,0,0,0,2.83,3.83c1.72,1.63,4.23,3,4.38,5.54,0,.19-.08.38-.12.57A6.13,6.13,0,0,0,35.21,11.57ZM32.7,29.2v0l0,0a.13.13,0,0,0,0,.06Zm2.6-5.48a4.26,4.26,0,0,1-.76,1.5,15.19,15.19,0,0,0-1.66,3.19,11.37,11.37,0,0,1,.22-3.87,20.8,20.8,0,0,0,.76-2.67C34.65,21.57,35.43,21.46,35.3,23.72ZM32.77,22.2a2,2,0,0,0,.76-.2c-.18,1.22-.75,2.29-.89,3.53a14.6,14.6,0,0,0,0,3.1c-.8-2-2.33-3.69-2.63-5.86A4.31,4.31,0,0,1,32.77,22.2Zm-4,1.8a5.29,5.29,0,0,0,.91-1c.39,2.19,2,3.89,2.7,6a26.61,26.61,0,0,1-5-4.36A10.65,10.65,0,0,0,28.81,24ZM27,24.81l.12-.06a25.81,25.81,0,0,0,4.65,4.14l-2.75-1C28,27.53,24.58,26.55,27,24.81ZM20,31c.53.72-1.62,3.29-2,3.93a8.24,8.24,0,0,0-.84,1.68,40.53,40.53,0,0,1,.58-6.22C18.44,30.33,19.56,30.38,20,31Zm-4.46-.57c.38,0,.72.22,1.16.17.21,0,.42-.18.63-.19h.07a40.48,40.48,0,0,0-.57,6A21.06,21.06,0,0,1,14,30.92,3.87,3.87,0,0,1,15.54,30.4Zm-1.85.68a21.29,21.29,0,0,0,2.85,5.42l-2.82-1.6c-.6-.34-2.91-1.47-2.85-2.31a6.37,6.37,0,0,0,.94-.36C12.41,31.93,13,31.46,13.69,31.08ZM9.26,33.7c.11-.52.69-.78,1.32-1,.1.68,1.17,1.35,1.63,1.66,1.48,1,3.1,1.8,4.65,2.68C15.05,36.52,9,34.93,9.26,33.7Zm5.16,13.51A14.37,14.37,0,0,1,12,45.47a12,12,0,0,1-1-1.09q-.84-1,.45-.51c1.54-.28,4.09.82,5.53,1.38a23.61,23.61,0,0,1,5.16,2.85C20,49.72,16.41,48.35,14.42,47.21Zm12.2,4.44a.77.77,0,0,0,.18.18l0,.14A3.13,3.13,0,0,1,26.62,51.65Zm1.21,1h0a.16.16,0,0,0,.07-.07.41.41,0,0,1,0,.08Zm.15-3.1a.57.57,0,0,0-.18,0c0-.37,0-.74,0-1.11,0,0,0-.06,0-.09l.1-.16A4.15,4.15,0,0,1,28,49C28,49.12,28,49.32,28,49.53Zm-.37,3.13h0Zm-.08,0s0,0,0,0h0Zm4.85,29.71c-.06.24-.68.67-.86.83a5.61,5.61,0,0,1-3.67,1.68h0l3.67-3.65.41.39C32.21,81.86,32.52,81.81,32.38,82.37Zm-1-1.36L27.82,84.5a16.79,16.79,0,0,1,1.56-4.77A6.21,6.21,0,0,1,31.34,81Zm-2.6-1.5c.12,0,.23.08.35.12a17,17,0,0,0-1.55,4.75,8.81,8.81,0,0,1-1-2.56A12.77,12.77,0,0,1,26.63,79l.06,0A16.5,16.5,0,0,0,28.74,79.51ZM25,78.46l.56.15a3.26,3.26,0,0,1,.76.26,11.83,11.83,0,0,0,0,3.2,10.81,10.81,0,0,0,1.07,2.67.13.13,0,0,0,.08.07s0,0,0,0l-.07,0a19.83,19.83,0,0,1-2.67-4.24A1.6,1.6,0,0,1,25,78.46ZM11.91,60.61a5.78,5.78,0,0,1,2.11.31c.88.92-.91,3.92-1.31,4.74a33.05,33.05,0,0,1-2.24,3.81l-.08,0-.05-.07a.12.12,0,0,0,.13-.1,34.77,34.77,0,0,0,1.24-8.67Zm-2.82.93c1-.55.94-.86,2.32-.92a34.81,34.81,0,0,1-1.22,8.55,21.66,21.66,0,0,1-3-6.89l.26,0A5.57,5.57,0,0,0,9.09,61.54Zm-2.16.79a22.29,22.29,0,0,0,3,7c-.37-.08-.73-.17-1.09-.27a11.81,11.81,0,0,1-2.55-2.87C5.4,65,4.56,63.78,3.76,62.5,4.76,62.3,5.91,62.44,6.93,62.33ZM3.56,65.87A6.14,6.14,0,0,1,2.13,64c-.3-1.06.17-.87.83-1.2a2.85,2.85,0,0,1,.51-.2.13.13,0,0,0,0,.06,46,46,0,0,0,3.55,5c.34.42.67.85,1,1.22A11.13,11.13,0,0,1,3.56,65.87ZM17.26,74c0-.12-.07-.24-.11-.36s.07-.37.11-.56C17.27,73.41,17.27,73.72,17.26,74Zm-2.24,3a13.51,13.51,0,0,1,.21-2.15c-.09,1.28-.19,2.56-.28,3.84,0,0,0,0,0,0l0,0A7.65,7.65,0,0,1,15,77.07ZM16.25,74a2.57,2.57,0,0,1,.08-.38C16.3,73.74,16.28,73.87,16.25,74Zm-.47,2.34.11,0c-.05.16-.09.32-.14.48Zm.82-3.23a.29.29,0,0,0-.14.08c.07-.17.14-.34.22-.51C16.65,72.81,16.63,73,16.6,73.1ZM1.09,76.94c2.43-.07,4.83,1,7.06,1.86a64.72,64.72,0,0,1,7.29,3.45l0,0C10.39,85.1,4.77,80.45,1.09,76.94ZM13.94,92.83A9.11,9.11,0,0,1,20,96.46l-.11,0a.12.12,0,0,0-.17,0l-.27.16a26.32,26.32,0,0,1-6.81-2.19,1.86,1.86,0,0,0,.07-.34C12.9,93.06,12.65,92.64,13.94,92.83ZM12.2,96.72a3.57,3.57,0,0,1,.37-2A28.46,28.46,0,0,0,19,96.86a20.26,20.26,0,0,1-6.32.61s-.05,0-.07,0A2.19,2.19,0,0,1,12.2,96.72Zm.5,1a22.67,22.67,0,0,0,5.6-.42,20.93,20.93,0,0,1-5.24,2.17l-.29-.27c0,.13.12-.72.12-.78A1.51,1.51,0,0,0,12.7,97.77Zm2.63,2.56a7.36,7.36,0,0,1-1,.34l-1-.92A22.14,22.14,0,0,0,19.42,97l.17-.07.19,0A9.56,9.56,0,0,1,15.33,100.33Zm18.84-1.2c-3.63-2.83-2.7-7.39-1.48-11.23,1.41,3.82,3.79,7.7,2,11.79a.31.31,0,0,0,0,.13l-.42-.39A.25.25,0,0,0,34.17,99.13Zm-2.27,3a.23.23,0,0,0,.2.19h-.55a5,5,0,0,1-.5,0A6.35,6.35,0,0,0,31.9,102.13Zm-1.77-.9c-.24,0-.48,0-.72.06.4-.1.81-.17,1.21-.24A4.09,4.09,0,0,0,30.13,101.23Zm2.39,1.08h0Zm1.63-1.43-1.34.12a8.41,8.41,0,0,0-1-.09A16.88,16.88,0,0,1,34.15,100.88Zm5.5,19.53a19.73,19.73,0,0,1,8.2,2l.06.13C45.11,122.57,41.77,122.3,39.65,120.41Zm14.24-4.55c.57,3.11-1.78,5.52-4.54,6.63l-.06-.06-.12-.06C49.59,119.54,51.73,117.58,53.89,115.86ZM35.25,112c-.27-.29-2.38-2.48-2.21-2.9.73-1.87,9.11,4.74,11.68,6.8a14.06,14.06,0,0,1-7.36-2A12.3,12.3,0,0,1,35.25,112ZM65.82,97c-.17.13-.35.24-.53.36,0,0,0,0,0-.05a4.73,4.73,0,0,0,.46-.32Zm-4.3,1.52a7.6,7.6,0,0,0,3.07-.8l.2-.06a8.5,8.5,0,0,1-4.12,1Zm-1.43-1-.24.2a2.53,2.53,0,0,0,.13-.22Zm5.45-7.69c.52-.27,4.16-2,4.56-1.4.64.88-2.57,2.87-3.11,3.15a9.38,9.38,0,0,1-4.71,1l.18-.44A12.14,12.14,0,0,1,65.54,89.88Zm-.63-12.16c.71.39,1.44.78,2.18,1.14a17.91,17.91,0,0,0-1.9,3.85A27.75,27.75,0,0,1,64.91,77.72ZM70,81.29c-.16.33-1.09.7-1.38.86a13.93,13.93,0,0,1-3.3,1.22s0,0,0,0a42.83,42.83,0,0,0,3.87-3.63C69.84,79.92,70.53,80.22,70,81.29Zm-1.14-1.68a44.81,44.81,0,0,1-3.4,3.21A17.06,17.06,0,0,1,67.36,79c.44.2.88.39,1.33.56Zm-5.39-2.69,1.12.63A26.64,26.64,0,0,0,65,83.13l-.07,0C63.75,81.23,62.83,79.15,63.48,76.92Zm-6.94,9.5c1.82,2.61,4.2,6,3.71,9.17-.25.51-.5,1-.77,1.51C57.15,93.82,55.44,90.41,56.54,86.42Zm6.12,16.44A13.69,13.69,0,0,1,54.12,106C56,103,59.42,102.56,62.66,102.86Zm-15.1-2.63c-1.69,1.7-3.54,3.26-5.33,4.86.61-5,5.06-9.79,8.41-13.37C50.29,94.84,49.87,97.89,47.56,100.23ZM38.43,72.51a.14.14,0,0,0,0,.08l-.28.11ZM37.07,73.6l.23-.18.32,0c-.42.17-.85.32-1.27.45a3.3,3.3,0,0,0,.22-.32A.39.39,0,0,0,37.07,73.6Zm1.9-1a4.89,4.89,0,0,0,.67-.39,5.86,5.86,0,0,1-.62.46A.18.18,0,0,0,39,72.64ZM36,74a.05.05,0,0,0,0,0h0Zm2.85-3.38a1.58,1.58,0,0,0-.15.12.93.93,0,0,0-.19.11h0a6.62,6.62,0,0,0-1.23.86,1.79,1.79,0,0,0-.78.83l-.12.14A4.58,4.58,0,0,1,38.83,70.58Zm2.64-23.3c-1,2.54-2.15,5-4.79,6.15a.28.28,0,0,0,.11-.23C37,50.36,39.16,48.58,41.47,47.28Zm-.29-19.64A21.46,21.46,0,0,1,45.26,25a10.86,10.86,0,0,1-7.69,8.63V33.5a.33.33,0,0,0,.06-.26,2,2,0,0,1,0-.34l0-.66C37.92,30.35,39.84,28.77,41.18,27.64ZM30,37.53c3.53,3.14,4.3,8,5.83,12.31a.33.33,0,0,0,.29.22v.17C30.33,48.16,29.9,42.83,30,37.53ZM23.46,57.7c5.47,1.49,10.17,5,11.49,10.77C28.84,68.4,25.67,62.72,23.46,57.7Zm29.48,18,.14-.15c-.1.13-.21.26-.32.38Zm-4.36,2.51a3.27,3.27,0,0,0,1.09-.34.3.3,0,0,0,0,.08,11.65,11.65,0,0,1-1.52.49Zm-.51-.78-.1.09.11-.12A0,0,0,0,1,48.07,77.47Zm-.77,1.07a.31.31,0,0,0,.05.1l-.12,0ZM70,32.23c.28.5-.53,2.38-.89,2.63a6.22,6.22,0,0,1-1.79.55c-1,.28-2,.51-3.07.71l0,0c1.44-1.63,3.18-3,4.59-4.64l.15.17C69.17,31.82,69.89,32.07,70,32.23Zm-3-2.42c1.1.41,1.09.79,1.58,1.41-1.42,1.67-3.17,3-4.62,4.67.19-1,.2-2,.48-3A13.55,13.55,0,0,1,66,29.51,4.71,4.71,0,0,1,67,29.81Zm-3.26-.93a2.67,2.67,0,0,0,1.42.55l.47,0a14.38,14.38,0,0,0-1.35,2.86,27.36,27.36,0,0,0-.6,3.47c-1.29-2.38-1-4.8-.42-7.42A3.27,3.27,0,0,0,63.76,28.88Zm-2.51.5a.9.9,0,0,1,.67-1.17c.35-.61.69-.65,1-.14l.11.08c-.63,2.7-.93,5.21.32,7.64A7.07,7.07,0,0,1,61.25,29.38ZM56.33,43a22.59,22.59,0,0,0,.06,3.08.27.27,0,0,0-.18,0C56.19,45.06,56.25,44,56.33,43Zm1.42,6.64s0,.1,0,.16l-.06.08C57.74,49.8,57.75,49.72,57.75,49.64Zm0-3.51v-.06a8.85,8.85,0,0,1,.41,1.65C58,47.18,57.91,46.65,57.76,46.13Zm-.54-1.6h0c0-.1-.07-.21-.11-.32A.31.31,0,0,0,57,44c0-.11,0-.22,0-.33.13.21.25.43.37.64A.33.33,0,0,0,57.22,44.53Zm1,8,.15-.06-.06.17ZM63.65,64c-3.08,2.58-6.46,4.91-10.69,4.38A15.94,15.94,0,0,1,63.65,64ZM74.73,48.54c-.12.47-2.15.9-2.67,1a9.1,9.1,0,0,1-3.08.08l0,0a.37.37,0,0,0,.07-.19c1.72-.74,3.8-.39,5.24-1.7C74.6,48,74.81,48.23,74.73,48.54Zm-1.25-1.6a3.85,3.85,0,0,0,.62.56c-1.34,1.19-3.28,1-4.9,1.55a41.34,41.34,0,0,0,3.2-3.55l.22.16C73.07,46.09,73.11,46.48,73.48,46.94Zm-1.33-1.61a40,40,0,0,1-3.21,3.55,7.63,7.63,0,0,1,1.53-4.39l.22.18A12.45,12.45,0,0,0,72.15,45.33Zm-3.41-1.44c.55-.55,1-.06,1.51.39a7.77,7.77,0,0,0-1.6,4.77.19.19,0,0,0-.1.08l-.11.12C67.75,47.91,67.78,44.84,68.74,43.89Z" /></g></g></svg>